<mxfile host="app.diagrams.net" agent="Mozilla/5.0 (Windows NT 10.0; Win64; x64) AppleWebKit/537.36 (KHTML, like Gecko) Chrome/140.0.0.0 Safari/537.36 Edg/140.0.0.0" version="28.2.5">
  <diagram name="1 oldal" id="DP70GeU2ns17dTmna_sU">
    <mxGraphModel dx="2058" dy="786" grid="1" gridSize="10" guides="1" tooltips="1" connect="1" arrows="1" fold="1" page="1" pageScale="1" pageWidth="827" pageHeight="1169" math="0" shadow="0">
      <root>
        <mxCell id="0" />
        <mxCell id="1" parent="0" />
        <mxCell id="LpiLq-O4aqDzNw859y_h-27" style="edgeStyle=none;rounded=0;orthogonalLoop=1;jettySize=auto;html=1;entryX=0.5;entryY=0;entryDx=0;entryDy=0;endArrow=none;endFill=0;" edge="1" parent="1" source="LpiLq-O4aqDzNw859y_h-1" target="LpiLq-O4aqDzNw859y_h-2">
          <mxGeometry relative="1" as="geometry" />
        </mxCell>
        <mxCell id="LpiLq-O4aqDzNw859y_h-1" value="FIWXDX_orarend" style="ellipse;whiteSpace=wrap;html=1;" vertex="1" parent="1">
          <mxGeometry x="354" y="90" width="120" height="80" as="geometry" />
        </mxCell>
        <mxCell id="LpiLq-O4aqDzNw859y_h-32" style="edgeStyle=none;rounded=0;orthogonalLoop=1;jettySize=auto;html=1;exitX=0.5;exitY=1;exitDx=0;exitDy=0;entryX=0.5;entryY=0;entryDx=0;entryDy=0;endArrow=none;endFill=0;" edge="1" parent="1" source="LpiLq-O4aqDzNw859y_h-2" target="LpiLq-O4aqDzNw859y_h-7">
          <mxGeometry relative="1" as="geometry" />
        </mxCell>
        <mxCell id="LpiLq-O4aqDzNw859y_h-33" style="edgeStyle=none;rounded=0;orthogonalLoop=1;jettySize=auto;html=1;exitX=0.5;exitY=1;exitDx=0;exitDy=0;entryX=0.5;entryY=0;entryDx=0;entryDy=0;endArrow=none;endFill=0;" edge="1" parent="1" source="LpiLq-O4aqDzNw859y_h-2" target="LpiLq-O4aqDzNw859y_h-8">
          <mxGeometry relative="1" as="geometry" />
        </mxCell>
        <mxCell id="LpiLq-O4aqDzNw859y_h-34" style="edgeStyle=none;rounded=0;orthogonalLoop=1;jettySize=auto;html=1;exitX=0.5;exitY=1;exitDx=0;exitDy=0;entryX=0.5;entryY=0;entryDx=0;entryDy=0;endArrow=none;endFill=0;" edge="1" parent="1" source="LpiLq-O4aqDzNw859y_h-2" target="LpiLq-O4aqDzNw859y_h-9">
          <mxGeometry relative="1" as="geometry" />
        </mxCell>
        <mxCell id="LpiLq-O4aqDzNw859y_h-35" style="edgeStyle=none;rounded=0;orthogonalLoop=1;jettySize=auto;html=1;exitX=0.5;exitY=1;exitDx=0;exitDy=0;entryX=0.5;entryY=0;entryDx=0;entryDy=0;endArrow=none;endFill=0;" edge="1" parent="1" source="LpiLq-O4aqDzNw859y_h-2" target="LpiLq-O4aqDzNw859y_h-10">
          <mxGeometry relative="1" as="geometry" />
        </mxCell>
        <mxCell id="LpiLq-O4aqDzNw859y_h-47" style="edgeStyle=none;rounded=0;orthogonalLoop=1;jettySize=auto;html=1;exitX=0;exitY=0.5;exitDx=0;exitDy=0;entryX=0.5;entryY=0;entryDx=0;entryDy=0;endArrow=none;endFill=0;" edge="1" parent="1" source="LpiLq-O4aqDzNw859y_h-2" target="LpiLq-O4aqDzNw859y_h-4">
          <mxGeometry relative="1" as="geometry" />
        </mxCell>
        <mxCell id="LpiLq-O4aqDzNw859y_h-48" style="edgeStyle=none;rounded=0;orthogonalLoop=1;jettySize=auto;html=1;exitX=1;exitY=0.5;exitDx=0;exitDy=0;entryX=0.5;entryY=0;entryDx=0;entryDy=0;endArrow=none;endFill=0;" edge="1" parent="1" source="LpiLq-O4aqDzNw859y_h-2" target="LpiLq-O4aqDzNw859y_h-5">
          <mxGeometry relative="1" as="geometry" />
        </mxCell>
        <mxCell id="LpiLq-O4aqDzNw859y_h-2" value="" style="ellipse;whiteSpace=wrap;html=1;" vertex="1" parent="1">
          <mxGeometry x="354" y="230" width="120" height="80" as="geometry" />
        </mxCell>
        <mxCell id="LpiLq-O4aqDzNw859y_h-31" style="edgeStyle=none;rounded=0;orthogonalLoop=1;jettySize=auto;html=1;entryX=0.5;entryY=0;entryDx=0;entryDy=0;exitX=0.5;exitY=1;exitDx=0;exitDy=0;endArrow=none;endFill=0;" edge="1" parent="1" source="LpiLq-O4aqDzNw859y_h-2" target="LpiLq-O4aqDzNw859y_h-6">
          <mxGeometry relative="1" as="geometry">
            <mxPoint x="310" y="400" as="sourcePoint" />
          </mxGeometry>
        </mxCell>
        <mxCell id="LpiLq-O4aqDzNw859y_h-3" value="ora" style="ellipse;whiteSpace=wrap;html=1;" vertex="1" parent="1">
          <mxGeometry x="367" y="237.5" width="94" height="65" as="geometry" />
        </mxCell>
        <mxCell id="LpiLq-O4aqDzNw859y_h-4" value="id" style="rhombus;whiteSpace=wrap;html=1;" vertex="1" parent="1">
          <mxGeometry x="160" y="290" width="80" height="80" as="geometry" />
        </mxCell>
        <mxCell id="LpiLq-O4aqDzNw859y_h-5" value="tipus" style="rhombus;whiteSpace=wrap;html=1;" vertex="1" parent="1">
          <mxGeometry x="580" y="290" width="80" height="80" as="geometry" />
        </mxCell>
        <mxCell id="LpiLq-O4aqDzNw859y_h-36" style="edgeStyle=none;rounded=0;orthogonalLoop=1;jettySize=auto;html=1;exitX=0.5;exitY=1;exitDx=0;exitDy=0;entryX=0.5;entryY=0;entryDx=0;entryDy=0;endArrow=none;endFill=0;" edge="1" parent="1" source="LpiLq-O4aqDzNw859y_h-6" target="LpiLq-O4aqDzNw859y_h-14">
          <mxGeometry relative="1" as="geometry" />
        </mxCell>
        <mxCell id="LpiLq-O4aqDzNw859y_h-6" value="targy" style="ellipse;whiteSpace=wrap;html=1;" vertex="1" parent="1">
          <mxGeometry x="50" y="450" width="120" height="80" as="geometry" />
        </mxCell>
        <mxCell id="LpiLq-O4aqDzNw859y_h-37" style="edgeStyle=none;rounded=0;orthogonalLoop=1;jettySize=auto;html=1;exitX=0.5;exitY=1;exitDx=0;exitDy=0;entryX=0.5;entryY=0;entryDx=0;entryDy=0;endArrow=none;endFill=0;" edge="1" parent="1" source="LpiLq-O4aqDzNw859y_h-7" target="LpiLq-O4aqDzNw859y_h-11">
          <mxGeometry relative="1" as="geometry" />
        </mxCell>
        <mxCell id="LpiLq-O4aqDzNw859y_h-38" style="edgeStyle=none;rounded=0;orthogonalLoop=1;jettySize=auto;html=1;exitX=0.5;exitY=1;exitDx=0;exitDy=0;entryX=0.5;entryY=0;entryDx=0;entryDy=0;endArrow=none;endFill=0;" edge="1" parent="1" source="LpiLq-O4aqDzNw859y_h-7" target="LpiLq-O4aqDzNw859y_h-12">
          <mxGeometry relative="1" as="geometry" />
        </mxCell>
        <mxCell id="LpiLq-O4aqDzNw859y_h-39" style="edgeStyle=none;rounded=0;orthogonalLoop=1;jettySize=auto;html=1;exitX=0.5;exitY=1;exitDx=0;exitDy=0;entryX=0.5;entryY=0;entryDx=0;entryDy=0;endArrow=none;endFill=0;" edge="1" parent="1" source="LpiLq-O4aqDzNw859y_h-7" target="LpiLq-O4aqDzNw859y_h-13">
          <mxGeometry relative="1" as="geometry" />
        </mxCell>
        <mxCell id="LpiLq-O4aqDzNw859y_h-7" value="idopont" style="ellipse;whiteSpace=wrap;html=1;" vertex="1" parent="1">
          <mxGeometry x="200" y="450" width="120" height="80" as="geometry" />
        </mxCell>
        <mxCell id="LpiLq-O4aqDzNw859y_h-40" style="edgeStyle=none;rounded=0;orthogonalLoop=1;jettySize=auto;html=1;exitX=0.5;exitY=1;exitDx=0;exitDy=0;entryX=0.5;entryY=0;entryDx=0;entryDy=0;endArrow=none;endFill=0;" edge="1" parent="1" source="LpiLq-O4aqDzNw859y_h-8" target="LpiLq-O4aqDzNw859y_h-15">
          <mxGeometry relative="1" as="geometry" />
        </mxCell>
        <mxCell id="LpiLq-O4aqDzNw859y_h-8" value="helyszin" style="ellipse;whiteSpace=wrap;html=1;" vertex="1" parent="1">
          <mxGeometry x="354" y="450" width="120" height="80" as="geometry" />
        </mxCell>
        <mxCell id="LpiLq-O4aqDzNw859y_h-41" style="edgeStyle=none;rounded=0;orthogonalLoop=1;jettySize=auto;html=1;exitX=0.5;exitY=1;exitDx=0;exitDy=0;entryX=0.5;entryY=0;entryDx=0;entryDy=0;endArrow=none;endFill=0;" edge="1" parent="1" source="LpiLq-O4aqDzNw859y_h-9" target="LpiLq-O4aqDzNw859y_h-16">
          <mxGeometry relative="1" as="geometry" />
        </mxCell>
        <mxCell id="LpiLq-O4aqDzNw859y_h-9" value="oktato" style="ellipse;whiteSpace=wrap;html=1;" vertex="1" parent="1">
          <mxGeometry x="510" y="450" width="120" height="80" as="geometry" />
        </mxCell>
        <mxCell id="LpiLq-O4aqDzNw859y_h-42" style="edgeStyle=none;rounded=0;orthogonalLoop=1;jettySize=auto;html=1;exitX=0.5;exitY=1;exitDx=0;exitDy=0;entryX=0.5;entryY=0;entryDx=0;entryDy=0;endArrow=none;endFill=0;" edge="1" parent="1" source="LpiLq-O4aqDzNw859y_h-10" target="LpiLq-O4aqDzNw859y_h-17">
          <mxGeometry relative="1" as="geometry" />
        </mxCell>
        <mxCell id="LpiLq-O4aqDzNw859y_h-10" value="szak" style="ellipse;whiteSpace=wrap;html=1;" vertex="1" parent="1">
          <mxGeometry x="660" y="450" width="120" height="80" as="geometry" />
        </mxCell>
        <mxCell id="LpiLq-O4aqDzNw859y_h-43" style="edgeStyle=none;rounded=0;orthogonalLoop=1;jettySize=auto;html=1;exitX=0.5;exitY=1;exitDx=0;exitDy=0;entryX=0.5;entryY=0;entryDx=0;entryDy=0;endArrow=none;endFill=0;" edge="1" parent="1" source="LpiLq-O4aqDzNw859y_h-11" target="LpiLq-O4aqDzNw859y_h-22">
          <mxGeometry relative="1" as="geometry" />
        </mxCell>
        <mxCell id="LpiLq-O4aqDzNw859y_h-11" value="nap" style="ellipse;whiteSpace=wrap;html=1;" vertex="1" parent="1">
          <mxGeometry x="60" y="720" width="120" height="80" as="geometry" />
        </mxCell>
        <mxCell id="LpiLq-O4aqDzNw859y_h-44" style="edgeStyle=none;rounded=0;orthogonalLoop=1;jettySize=auto;html=1;exitX=0.5;exitY=1;exitDx=0;exitDy=0;entryX=0.5;entryY=0;entryDx=0;entryDy=0;startArrow=none;startFill=0;endArrow=none;endFill=0;" edge="1" parent="1" source="LpiLq-O4aqDzNw859y_h-12" target="LpiLq-O4aqDzNw859y_h-23">
          <mxGeometry relative="1" as="geometry" />
        </mxCell>
        <mxCell id="LpiLq-O4aqDzNw859y_h-12" value="tol" style="ellipse;whiteSpace=wrap;html=1;" vertex="1" parent="1">
          <mxGeometry x="200" y="720" width="120" height="80" as="geometry" />
        </mxCell>
        <mxCell id="LpiLq-O4aqDzNw859y_h-13" value="ig" style="ellipse;whiteSpace=wrap;html=1;" vertex="1" parent="1">
          <mxGeometry x="334" y="720" width="120" height="80" as="geometry" />
        </mxCell>
        <mxCell id="LpiLq-O4aqDzNw859y_h-14" value="" style="whiteSpace=wrap;html=1;aspect=fixed;" vertex="1" parent="1">
          <mxGeometry x="70" y="580" width="80" height="80" as="geometry" />
        </mxCell>
        <mxCell id="LpiLq-O4aqDzNw859y_h-15" value="" style="whiteSpace=wrap;html=1;aspect=fixed;" vertex="1" parent="1">
          <mxGeometry x="374" y="580" width="80" height="80" as="geometry" />
        </mxCell>
        <mxCell id="LpiLq-O4aqDzNw859y_h-16" value="" style="whiteSpace=wrap;html=1;aspect=fixed;" vertex="1" parent="1">
          <mxGeometry x="530" y="580" width="80" height="80" as="geometry" />
        </mxCell>
        <mxCell id="LpiLq-O4aqDzNw859y_h-17" value="" style="whiteSpace=wrap;html=1;aspect=fixed;" vertex="1" parent="1">
          <mxGeometry x="680" y="580" width="80" height="80" as="geometry" />
        </mxCell>
        <mxCell id="LpiLq-O4aqDzNw859y_h-22" value="" style="whiteSpace=wrap;html=1;aspect=fixed;" vertex="1" parent="1">
          <mxGeometry x="80" y="890" width="80" height="80" as="geometry" />
        </mxCell>
        <mxCell id="LpiLq-O4aqDzNw859y_h-23" value="" style="whiteSpace=wrap;html=1;aspect=fixed;" vertex="1" parent="1">
          <mxGeometry x="220" y="890" width="80" height="80" as="geometry" />
        </mxCell>
        <mxCell id="LpiLq-O4aqDzNw859y_h-24" value="" style="whiteSpace=wrap;html=1;aspect=fixed;" vertex="1" parent="1">
          <mxGeometry x="360" y="890" width="80" height="80" as="geometry" />
        </mxCell>
        <mxCell id="LpiLq-O4aqDzNw859y_h-26" style="edgeStyle=none;rounded=0;orthogonalLoop=1;jettySize=auto;html=1;entryX=0.5;entryY=1;entryDx=0;entryDy=0;" edge="1" parent="1" source="LpiLq-O4aqDzNw859y_h-14" target="LpiLq-O4aqDzNw859y_h-14">
          <mxGeometry relative="1" as="geometry" />
        </mxCell>
        <mxCell id="LpiLq-O4aqDzNw859y_h-45" style="edgeStyle=none;rounded=0;orthogonalLoop=1;jettySize=auto;html=1;exitX=0.5;exitY=1;exitDx=0;exitDy=0;entryX=0.425;entryY=0.05;entryDx=0;entryDy=0;entryPerimeter=0;startArrow=none;startFill=0;endArrow=none;endFill=0;" edge="1" parent="1" source="LpiLq-O4aqDzNw859y_h-13" target="LpiLq-O4aqDzNw859y_h-24">
          <mxGeometry relative="1" as="geometry" />
        </mxCell>
      </root>
    </mxGraphModel>
  </diagram>
</mxfile>
